<svg xmlns="http://www.w3.org/2000/svg" xmlns:xlink="http://www.w3.org/1999/xlink" width="200" zoomAndPan="magnify" viewBox="0 0 150 149.999998" height="200" preserveAspectRatio="xMidYMid meet" version="1.0"><defs><g/></defs><g fill="#4680ff" fill-opacity="1"><g transform="translate(6.948076, 95.637581)"><g><path d="M 2.921875 -31.671875 L 0.328125 -31.671875 L 2.921875 -43.375 L 14.625 -43.375 L 20.8125 -33.296875 L 26.984375 -43.375 L 38.6875 -43.375 L 38.6875 0 L 26.984375 0 L 26.984375 -24.328125 L 20.8125 -14.375 L 14.625 -24.328125 L 14.625 0 L 2.921875 0 Z M 2.921875 -31.671875 "/></g></g></g><g fill="#4680ff" fill-opacity="1"><g transform="translate(48.568434, 95.637581)"><g><path d="M 2.921875 -31.671875 L 0.328125 -31.671875 L 2.921875 -43.375 L 16.0625 -43.375 C 17.40625 -43.375 18.597656 -43.328125 19.640625 -43.234375 C 20.679688 -43.148438 21.613281 -43.03125 22.4375 -42.875 C 23.257812 -42.726562 23.984375 -42.515625 24.609375 -42.234375 C 25.242188 -41.953125 25.84375 -41.617188 26.40625 -41.234375 C 27.570312 -40.316406 28.476562 -39.085938 29.125 -37.546875 C 29.78125 -36.015625 30.109375 -34.273438 30.109375 -32.328125 C 30.109375 -30.109375 29.769531 -28.269531 29.09375 -26.8125 C 28.425781 -25.363281 27.269531 -24.054688 25.625 -22.890625 C 27.65625 -22.148438 29.132812 -20.910156 30.0625 -19.171875 C 31 -17.441406 31.46875 -15.125 31.46875 -12.21875 C 31.46875 -7.84375 30.210938 -4.550781 27.703125 -2.34375 C 27.179688 -1.863281 26.640625 -1.472656 26.078125 -1.171875 C 25.515625 -0.867188 24.820312 -0.628906 24 -0.453125 C 23.175781 -0.273438 22.1875 -0.15625 21.03125 -0.09375 C 19.882812 -0.03125 18.46875 0 16.78125 0 L 2.921875 0 Z M 14.625 -25.8125 C 16.28125 -25.8125 17.363281 -26.050781 17.875 -26.53125 C 18.394531 -27.007812 18.65625 -27.960938 18.65625 -29.390625 C 18.65625 -30.566406 18.394531 -31.410156 17.875 -31.921875 C 17.363281 -32.441406 16.519531 -32.703125 15.34375 -32.703125 L 14.625 -32.703125 Z M 14.625 -10.796875 C 14.84375 -10.753906 15.050781 -10.734375 15.25 -10.734375 C 15.445312 -10.734375 15.585938 -10.734375 15.671875 -10.734375 C 16.929688 -10.734375 17.820312 -11.035156 18.34375 -11.640625 C 18.863281 -12.242188 19.125 -13.265625 19.125 -14.703125 C 19.125 -16.128906 18.796875 -17.113281 18.140625 -17.65625 C 17.492188 -18.195312 16.320312 -18.46875 14.625 -18.46875 Z M 14.625 -10.796875 "/></g></g></g><g fill="#4680ff" fill-opacity="1"><g transform="translate(81.669622, 95.637581)"><g><path d="M 2.921875 -31.671875 L 0.328125 -31.671875 L 2.921875 -43.375 L 14.625 -43.375 C 16.0625 -43.375 17.3125 -43.328125 18.375 -43.234375 C 19.4375 -43.148438 20.378906 -42.988281 21.203125 -42.75 C 22.023438 -42.519531 22.757812 -42.21875 23.40625 -41.84375 C 24.0625 -41.476562 24.710938 -41.015625 25.359375 -40.453125 C 27.046875 -38.929688 28.351562 -36.976562 29.28125 -34.59375 C 30.21875 -32.207031 30.6875 -29.585938 30.6875 -26.734375 C 30.6875 -23.390625 30.078125 -20.375 28.859375 -17.6875 C 27.648438 -15 26.007812 -13.003906 23.9375 -11.703125 C 21.851562 -10.316406 18.75 -9.625 14.625 -9.625 L 14.625 0 L 2.921875 0 Z M 15.09375 -20.875 C 16.300781 -20.875 17.296875 -21.40625 18.078125 -22.46875 C 18.859375 -23.53125 19.25 -24.882812 19.25 -26.53125 C 19.25 -30.082031 17.707031 -31.945312 14.625 -32.125 L 14.625 -20.875 Z M 15.09375 -20.875 "/></g></g></g><g fill="#4680ff" fill-opacity="1"><g transform="translate(113.600236, 95.637581)"><g><path d="M 2.921875 -31.671875 L 0.328125 -31.671875 L 2.921875 -43.375 L 17.75 -43.375 L 17.75 -44.875 L 28.09375 -44.875 L 25.171875 -31.671875 L 14.625 -31.671875 L 14.625 -26.46875 L 27.1875 -26.46875 L 25.171875 -16.90625 L 14.625 -16.90625 L 14.625 -11.703125 L 27.1875 -11.703125 L 24.578125 0 L 2.921875 0 Z M 2.921875 -31.671875 "/></g></g></g></svg>