<svg width="283" height="519" viewBox="0 0 283 519" fill="none" xmlns="http://www.w3.org/2000/svg">
<g clip-path="url(#clip0_1559_22253)">
<g clip-path="url(#clip1_1559_22253)">
<mask id="mask0_1559_22253" style="mask-type:luminance" maskUnits="userSpaceOnUse" x="5" y="4" width="274" height="595">
<path d="M255.745 4H28.255C15.451 4 5.07129 14.4041 5.07129 27.2383V574.791C5.07129 587.625 15.451 598.029 28.255 598.029H255.745C268.549 598.029 278.929 587.625 278.929 574.791V27.2383C278.929 14.4041 268.549 4 255.745 4Z" fill="white"/>
</mask>
<g mask="url(#mask0_1559_22253)">
<path d="M255.745 4H28.255C15.451 4 5.07129 14.4041 5.07129 27.2383V574.791C5.07129 587.625 15.451 598.029 28.255 598.029H255.745C268.549 598.029 278.929 587.625 278.929 574.791V27.2383C278.929 14.4041 268.549 4 255.745 4Z" fill="#F9F9FF"/>
<path d="M75.6945 62.2411C74.8735 62.2411 74.1151 62.1394 73.4196 61.9361C72.7337 61.7231 72.1445 61.4326 71.6519 61.0647L72.2314 59.5978C72.5599 59.8301 72.9028 60.0286 73.2602 60.1932C73.6176 60.3481 73.9992 60.4692 74.4049 60.5563C74.8106 60.6338 75.2405 60.6725 75.6945 60.6725C76.4576 60.6725 77.0082 60.5467 77.3464 60.2949C77.6847 60.0431 77.8535 59.714 77.8535 59.3073C77.8535 58.949 77.7376 58.6779 77.5057 58.4939C77.2739 58.3003 76.8586 58.1405 76.2596 58.0146L74.6223 57.6806C73.6853 57.4869 72.9849 57.1626 72.5212 56.7075C72.0576 56.2524 71.8257 55.6424 71.8257 54.8775C71.8257 54.2384 71.9948 53.6816 72.3329 53.2072C72.671 52.7328 73.1443 52.3648 73.7529 52.1034C74.3615 51.842 75.0715 51.7113 75.8829 51.7113C76.6074 51.7113 77.2788 51.8178 77.897 52.0308C78.515 52.2341 79.0322 52.5295 79.4474 52.9167L78.8678 54.311C78.4527 53.9625 77.9984 53.7059 77.5057 53.5413C77.0131 53.367 76.4625 53.2798 75.8539 53.2798C75.168 53.2798 74.6319 53.4154 74.2455 53.6865C73.8688 53.9479 73.6804 54.311 73.6804 54.7758C73.6804 55.134 73.7963 55.4197 74.0282 55.6327C74.2697 55.8457 74.6754 56.0103 75.2453 56.1265L76.8682 56.4461C77.8339 56.6397 78.549 56.9593 79.0127 57.4046C79.4764 57.8404 79.7082 58.431 79.7082 59.1766C79.7082 59.7866 79.5437 60.324 79.2155 60.7887C78.8873 61.2438 78.4237 61.6021 77.8245 61.8635C77.2256 62.1153 76.5156 62.2411 75.6945 62.2411ZM85.4396 62.2411C84.2124 62.2411 83.2517 61.9022 82.5562 61.2244C81.8607 60.5467 81.5129 59.6171 81.5129 58.4358C81.5129 57.6709 81.6621 57.0028 81.9621 56.4315C82.2613 55.8602 82.6764 55.4149 83.2082 55.0953C83.7487 54.7758 84.3768 54.616 85.0919 54.616C85.7968 54.616 86.3858 54.7661 86.8596 55.0663C87.3327 55.3664 87.6899 55.7876 87.9319 56.3299C88.1826 56.8721 88.3086 57.5063 88.3086 58.2325V58.7118H82.9764V57.7532H87.019L86.7727 57.9566C86.7727 57.2788 86.6278 56.7607 86.338 56.4025C86.0576 56.0443 85.6468 55.8651 85.1064 55.8651C84.5072 55.8651 84.0436 56.0781 83.7154 56.5042C83.3966 56.9302 83.2372 57.5257 83.2372 58.2906V58.4794C83.2372 59.2734 83.4299 59.8688 83.8168 60.2659C84.2124 60.6531 84.768 60.8468 85.4831 60.8468C85.8982 60.8468 86.2844 60.7936 86.6423 60.6871C87.0089 60.5709 87.3566 60.3869 87.6856 60.1351L88.2217 61.3552C87.8739 61.636 87.4581 61.8538 86.9756 62.0087C86.4923 62.1636 85.9801 62.2411 85.4396 62.2411ZM90.422 62.0959V56.5913C90.422 56.2912 90.4118 55.9862 90.393 55.6763C90.3734 55.3664 90.3445 55.0614 90.3061 54.7613H92.0593L92.2042 56.2137H92.0303C92.2622 55.7005 92.6049 55.3083 93.0591 55.0372C93.5126 54.7564 94.0394 54.616 94.6385 54.616C95.4978 54.616 96.1454 54.8581 96.5801 55.3422C97.0148 55.8264 97.2322 56.5816 97.2322 57.608V62.0959H95.421V57.6951C95.421 57.1045 95.305 56.6833 95.0732 56.4315C94.8508 56.1701 94.5124 56.0394 94.0589 56.0394C93.4982 56.0394 93.054 56.2137 92.7258 56.5623C92.3969 56.9108 92.2332 57.3756 92.2332 57.9566V62.0959H90.422ZM102.572 62.2411C101.934 62.2411 101.369 62.091 100.876 61.7909C100.394 61.481 100.017 61.0405 99.7462 60.4692C99.4759 59.8979 99.3405 59.2153 99.3405 58.4213C99.3405 57.6274 99.4759 56.9495 99.7462 56.388C100.017 55.8167 100.394 55.3809 100.876 55.0808C101.369 54.7709 101.934 54.616 102.572 54.616C103.18 54.616 103.716 54.7661 104.18 55.0663C104.654 55.3568 104.968 55.7538 105.122 56.2572H104.934V51.4062H106.745V62.0959H104.963V60.5418H105.136C104.982 61.0647 104.668 61.481 104.195 61.7909C103.731 62.091 103.19 62.2411 102.572 62.2411ZM103.079 60.8468C103.649 60.8468 104.108 60.6483 104.455 60.2513C104.803 59.8447 104.977 59.2347 104.977 58.4213C104.977 57.608 104.803 57.0028 104.455 56.6058C104.108 56.2088 103.649 56.0103 103.079 56.0103C102.509 56.0103 102.046 56.2088 101.688 56.6058C101.34 57.0028 101.166 57.608 101.166 58.4213C101.166 59.2347 101.34 59.8447 101.688 60.2513C102.046 60.6483 102.509 60.8468 103.079 60.8468ZM114.012 62.0959V51.8565H115.649L119.402 60.324H118.953L122.706 51.8565H124.329V62.0959H122.634V54.4999H123.155L119.721 62.0959H118.605L115.171 54.4999H115.707V62.0959H114.012ZM130.344 62.2411C129.59 62.2411 128.938 62.0862 128.387 61.7763C127.837 61.4665 127.407 61.026 127.098 60.4547C126.799 59.8834 126.649 59.2056 126.649 58.4213C126.649 57.637 126.799 56.9641 127.098 56.4025C127.407 55.8312 127.837 55.3907 128.387 55.0808C128.938 54.7709 129.59 54.616 130.344 54.616C131.097 54.616 131.749 54.7709 132.3 55.0808C132.86 55.3907 133.29 55.8312 133.589 56.4025C133.899 56.9641 134.053 57.637 134.053 58.4213C134.053 59.2056 133.899 59.8834 133.589 60.4547C133.29 61.026 132.86 61.4665 132.3 61.7763C131.749 62.0862 131.097 62.2411 130.344 62.2411ZM130.344 60.8468C130.914 60.8468 131.368 60.6483 131.706 60.2513C132.044 59.8447 132.213 59.2347 132.213 58.4213C132.213 57.608 132.044 57.0028 131.706 56.6058C131.368 56.2088 130.914 56.0103 130.344 56.0103C129.774 56.0103 129.32 56.2088 128.982 56.6058C128.644 57.0028 128.474 57.608 128.474 58.4213C128.474 59.2347 128.644 59.8447 128.982 60.2513C129.32 60.6483 129.774 60.8468 130.344 60.8468ZM136.195 62.0959V56.5913C136.195 56.2912 136.185 55.9862 136.166 55.6763C136.147 55.3664 136.118 55.0614 136.079 54.7613H137.832L137.977 56.2137H137.803C138.035 55.7005 138.378 55.3083 138.832 55.0372C139.286 54.7564 139.813 54.616 140.411 54.616C141.271 54.616 141.918 54.8581 142.353 55.3422C142.787 55.8264 143.005 56.5816 143.005 57.608V62.0959H141.194V57.6951C141.194 57.1045 141.078 56.6833 140.846 56.4315C140.624 56.1701 140.286 56.0394 139.832 56.0394C139.272 56.0394 138.827 56.2137 138.498 56.5623C138.17 56.9108 138.006 57.3756 138.006 57.9566V62.0959H136.195ZM149.041 62.2411C147.814 62.2411 146.853 61.9022 146.157 61.2244C145.462 60.5467 145.114 59.6171 145.114 58.4358C145.114 57.6709 145.264 57.0028 145.563 56.4315C145.862 55.8602 146.278 55.4149 146.809 55.0953C147.35 54.7758 147.978 54.616 148.693 54.616C149.398 54.616 149.987 54.7661 150.461 55.0663C150.934 55.3664 151.292 55.7876 151.533 56.3299C151.784 56.8721 151.91 57.5063 151.91 58.2325V58.7118H146.577V57.7532H150.62L150.374 57.9566C150.374 57.2788 150.229 56.7607 149.939 56.4025C149.659 56.0443 149.248 55.8651 148.707 55.8651C148.108 55.8651 147.644 56.0781 147.316 56.5042C146.997 56.9302 146.838 57.5257 146.838 58.2906V58.4794C146.838 59.2734 147.032 59.8688 147.418 60.2659C147.814 60.6531 148.369 60.8468 149.084 60.8468C149.499 60.8468 149.886 60.7936 150.243 60.6871C150.611 60.5709 150.958 60.3869 151.286 60.1351L151.823 61.3552C151.475 61.636 151.06 61.8538 150.576 62.0087C150.093 62.1636 149.582 62.2411 149.041 62.2411ZM153.765 65.3928L153.345 63.9549C153.799 63.8581 154.18 63.7467 154.489 63.6209C154.799 63.495 155.055 63.3304 155.257 63.1271C155.46 62.9237 155.629 62.6623 155.765 62.3428L156.127 61.4859L156.083 62.1975L152.896 54.7613H154.823L157.112 60.4837H156.692L158.996 54.7613H160.821L157.489 62.5025C157.266 63.0254 157.025 63.4563 156.764 63.7952C156.504 64.1437 156.223 64.4197 155.924 64.623C155.625 64.836 155.296 65.0007 154.939 65.1169C154.581 65.2331 154.19 65.3251 153.765 65.3928Z" fill="#2E2E2E"/>
<g filter="url(#filter0_d_1559_22253)">
<path d="M36.2248 70.8123C43.8272 70.8123 49.9901 64.6348 49.9901 57.0145C49.9901 49.3943 43.8272 43.2168 36.2248 43.2168C28.6224 43.2168 22.4595 49.3943 22.4595 57.0145C22.4595 64.6348 28.6224 70.8123 36.2248 70.8123Z" fill="white"/>
</g>
<path d="M34.4636 52.6035L30.0659 57.0115L34.4636 61.4196" stroke="#5658DD" stroke-width="1.5" stroke-miterlimit="10" stroke-linecap="round" stroke-linejoin="round"/>
<path d="M42.3826 57.0117H30.1895" stroke="#5658DD" stroke-width="1.5" stroke-miterlimit="10" stroke-linecap="round" stroke-linejoin="round"/>
<path d="M231.113 367.824H53.6124C44.0094 367.824 36.2246 375.627 36.2246 385.253C36.2246 394.879 44.0094 402.682 53.6124 402.682H231.113C240.716 402.682 248.5 394.879 248.5 385.253C248.5 375.627 240.716 367.824 231.113 367.824Z" fill="#5658DD"/>
<path d="M131.425 390.088C130.768 390.088 130.162 390.006 129.605 389.844C129.056 389.673 128.585 389.441 128.191 389.147L128.655 387.973C128.917 388.159 129.191 388.318 129.478 388.45C129.763 388.574 130.069 388.67 130.393 388.74C130.718 388.802 131.061 388.833 131.425 388.833C132.035 388.833 132.476 388.732 132.747 388.531C133.017 388.33 133.152 388.066 133.152 387.741C133.152 387.454 133.06 387.237 132.874 387.09C132.689 386.935 132.356 386.808 131.877 386.707L130.567 386.439C129.817 386.285 129.257 386.025 128.886 385.661C128.515 385.297 128.33 384.809 128.33 384.197C128.33 383.686 128.465 383.241 128.736 382.861C129.006 382.481 129.385 382.187 129.872 381.978C130.359 381.769 130.927 381.664 131.576 381.664C132.155 381.664 132.692 381.749 133.187 381.92C133.681 382.082 134.095 382.318 134.427 382.628L133.964 383.744C133.631 383.465 133.268 383.259 132.874 383.128C132.48 382.989 132.039 382.919 131.553 382.919C131.003 382.919 130.574 383.027 130.266 383.244C129.964 383.453 129.814 383.744 129.814 384.116C129.814 384.402 129.907 384.63 130.092 384.801C130.285 384.972 130.609 385.103 131.066 385.196L132.364 385.452C133.136 385.606 133.709 385.862 134.08 386.219C134.451 386.567 134.636 387.04 134.636 387.636C134.636 388.124 134.504 388.554 134.242 388.926C133.979 389.29 133.608 389.577 133.129 389.786C132.649 389.987 132.081 390.088 131.425 390.088ZM139.221 390.088C138.24 390.088 137.47 389.817 136.914 389.274C136.357 388.732 136.079 387.988 136.079 387.044C136.079 386.431 136.199 385.897 136.439 385.44C136.678 384.983 137.011 384.627 137.435 384.371C137.869 384.116 138.371 383.988 138.942 383.988C139.507 383.988 139.978 384.108 140.357 384.348C140.735 384.588 141.022 384.925 141.214 385.359C141.416 385.792 141.516 386.3 141.516 386.881V387.264H137.25V386.497H140.484L140.287 386.66C140.287 386.118 140.171 385.704 139.939 385.417C139.715 385.13 139.387 384.987 138.954 384.987C138.475 384.987 138.104 385.158 137.841 385.498C137.586 385.839 137.459 386.315 137.459 386.927V387.078C137.459 387.714 137.614 388.19 137.922 388.508C138.24 388.818 138.684 388.972 139.255 388.972C139.588 388.972 139.897 388.93 140.183 388.845C140.477 388.752 140.755 388.604 141.017 388.403L141.446 389.379C141.168 389.603 140.836 389.778 140.449 389.902C140.063 390.026 139.654 390.088 139.221 390.088ZM143.207 389.972V385.568C143.207 385.328 143.199 385.084 143.184 384.836C143.168 384.588 143.144 384.344 143.114 384.104H144.517L144.633 385.266H144.493C144.679 384.856 144.953 384.542 145.316 384.325C145.679 384.1 146.1 383.988 146.58 383.988C147.267 383.988 147.786 384.182 148.133 384.569C148.481 384.956 148.655 385.56 148.655 386.381V389.972H147.206V386.451C147.206 385.978 147.113 385.641 146.928 385.44C146.749 385.231 146.479 385.126 146.116 385.126C145.668 385.126 145.312 385.266 145.05 385.545C144.787 385.824 144.656 386.195 144.656 386.66V389.972H143.207ZM152.926 390.088C152.416 390.088 151.964 389.968 151.57 389.728C151.184 389.48 150.883 389.127 150.666 388.67C150.45 388.214 150.342 387.667 150.342 387.032C150.342 386.397 150.45 385.855 150.666 385.405C150.883 384.948 151.184 384.6 151.57 384.36C151.964 384.112 152.416 383.988 152.926 383.988C153.413 383.988 153.842 384.108 154.213 384.348C154.592 384.58 154.843 384.898 154.967 385.301H154.816V381.42H156.265V389.972H154.839V388.728H154.978C154.855 389.147 154.604 389.48 154.225 389.728C153.854 389.968 153.421 390.088 152.926 390.088ZM153.332 388.972C153.789 388.972 154.155 388.813 154.433 388.496C154.712 388.171 154.851 387.683 154.851 387.032C154.851 386.381 154.712 385.897 154.433 385.58C154.155 385.262 153.789 385.103 153.332 385.103C152.876 385.103 152.506 385.262 152.219 385.58C151.941 385.897 151.802 386.381 151.802 387.032C151.802 387.683 151.941 388.171 152.219 388.496C152.506 388.813 152.876 388.972 153.332 388.972Z" fill="white"/>
<g filter="url(#filter1_d_1559_22253)">
<path d="M252.847 99.8594H29.7037C24.9022 99.8594 21.0098 103.761 21.0098 108.574V173.205C21.0098 178.018 24.9022 181.92 29.7037 181.92H252.847C257.648 181.92 261.541 178.018 261.541 173.205V108.574C261.541 103.761 257.648 99.8594 252.847 99.8594Z" fill="white"/>
</g>
<path d="M33.4424 120.917L37.0822 112.726H38.1139L41.8117 120.917H40.5714L39.5629 118.593L40.0729 118.919H35.1232L35.668 118.593L34.6595 120.917H33.4424ZM37.5807 114.05L35.8187 118.222L35.5405 117.954H39.6556L39.4238 118.222L37.627 114.05H37.5807ZM43.2513 120.917V116.467C43.2513 116.243 43.2397 116.014 43.2165 115.781C43.2011 115.541 43.1817 115.301 43.1585 115.061H44.2945L44.3989 116.293H44.2598C44.422 115.866 44.6693 115.538 45.0016 115.305C45.3416 115.073 45.7474 114.957 46.2188 114.957C46.6979 114.957 47.0882 115.073 47.3896 115.305C47.6987 115.53 47.9112 115.878 48.0271 116.351H47.8416C47.9962 115.925 48.259 115.588 48.6299 115.34C49.0008 115.084 49.4297 114.957 49.9166 114.957C50.5657 114.957 51.0526 115.146 51.3772 115.526C51.7017 115.906 51.864 116.494 51.864 117.292V120.917H50.6932V117.35C50.6932 116.839 50.6043 116.471 50.4266 116.246C50.2566 116.014 49.9784 115.898 49.592 115.898C49.1438 115.898 48.7883 116.052 48.5256 116.362C48.2628 116.673 48.1314 117.091 48.1314 117.617V120.917H46.9607V117.35C46.9607 116.839 46.8718 116.471 46.694 116.246C46.524 116.014 46.2458 115.898 45.8594 115.898C45.4112 115.898 45.0596 116.052 44.8046 116.362C44.5496 116.673 44.422 117.091 44.422 117.617V120.917H43.2513ZM54.005 120.917V115.061H55.1757V120.917H54.005ZM53.9122 113.841V112.621H55.2685V113.841H53.9122ZM59.6273 121.022C58.9936 121.022 58.5145 120.851 58.1899 120.511C57.8653 120.162 57.7031 119.643 57.7031 118.954V115.967H56.567V115.061H57.7031V113.516L58.8738 113.202V115.061H60.4967V115.967H58.8738V118.849C58.8738 119.282 58.9511 119.593 59.1057 119.778C59.2602 119.964 59.4844 120.057 59.778 120.057C59.9248 120.057 60.0524 120.046 60.1605 120.022C60.2764 119.991 60.3808 119.956 60.4735 119.918V120.871C60.3576 120.917 60.2223 120.952 60.0678 120.975C59.9133 121.006 59.7664 121.022 59.6273 121.022Z" fill="#2E2E2E"/>
<path d="M234.758 116.561H166.609C157.819 116.561 150.694 123.703 150.694 132.513C150.694 141.324 157.819 148.466 166.609 148.466H234.758C243.548 148.466 250.674 141.324 250.674 132.513C250.674 123.703 243.548 116.561 234.758 116.561Z" fill="#EDEDFF"/>
<path d="M185.131 128.934V128.09H187.038V135.441H186.105V128.934H185.131ZM188.623 131.689C188.623 130.524 188.813 129.615 189.191 128.965C189.57 128.307 190.233 127.979 191.179 127.979C192.119 127.979 192.779 128.307 193.157 128.965C193.536 129.615 193.725 130.524 193.725 131.689C193.725 132.875 193.536 133.798 193.157 134.455C192.779 135.112 192.119 135.441 191.179 135.441C190.233 135.441 189.57 135.112 189.191 134.455C188.813 133.798 188.623 132.875 188.623 131.689ZM192.812 131.689C192.812 131.1 192.771 130.602 192.69 130.195C192.616 129.782 192.457 129.449 192.213 129.199C191.977 128.948 191.632 128.822 191.179 128.822C190.72 128.822 190.367 128.948 190.124 129.199C189.888 129.449 189.728 129.782 189.647 130.195C189.573 130.602 189.536 131.1 189.536 131.689C189.536 132.299 189.573 132.811 189.647 133.225C189.728 133.638 189.888 133.97 190.124 134.221C190.367 134.471 190.72 134.597 191.179 134.597C191.632 134.597 191.977 134.471 192.213 134.221C192.457 133.97 192.616 133.638 192.69 133.225C192.771 132.811 192.812 132.299 192.812 131.689ZM196.097 134.16L194.961 136.895H194.343L195.083 134.16H196.097ZM197.003 131.689C197.003 130.524 197.192 129.615 197.571 128.965C197.949 128.307 198.612 127.979 199.559 127.979C200.499 127.979 201.158 128.307 201.537 128.965C201.915 129.615 202.105 130.524 202.105 131.689C202.105 132.875 201.915 133.798 201.537 134.455C201.158 135.112 200.499 135.441 199.559 135.441C198.612 135.441 197.949 135.112 197.571 134.455C197.192 133.798 197.003 132.875 197.003 131.689ZM201.192 131.689C201.192 131.1 201.152 130.602 201.07 130.195C200.996 129.782 200.837 129.449 200.594 129.199C200.357 128.948 200.012 128.822 199.559 128.822C199.099 128.822 198.748 128.948 198.504 129.199C198.267 129.449 198.109 129.782 198.028 130.195C197.953 130.602 197.916 131.1 197.916 131.689C197.916 132.299 197.953 132.811 198.028 133.225C198.109 133.638 198.267 133.97 198.504 134.221C198.748 134.471 199.099 134.597 199.559 134.597C200.012 134.597 200.357 134.471 200.594 134.221C200.837 133.97 200.996 133.638 201.07 133.225C201.152 132.811 201.192 132.299 201.192 131.689ZM203.372 131.689C203.372 130.524 203.561 129.615 203.94 128.965C204.318 128.307 204.981 127.979 205.928 127.979C206.868 127.979 207.527 128.307 207.906 128.965C208.284 129.615 208.474 130.524 208.474 131.689C208.474 132.875 208.284 133.798 207.906 134.455C207.527 135.112 206.868 135.441 205.928 135.441C204.981 135.441 204.318 135.112 203.94 134.455C203.561 133.798 203.372 132.875 203.372 131.689ZM207.561 131.689C207.561 131.1 207.521 130.602 207.439 130.195C207.365 129.782 207.206 129.449 206.963 129.199C206.726 128.948 206.381 128.822 205.928 128.822C205.468 128.822 205.117 128.948 204.873 129.199C204.636 129.449 204.478 129.782 204.397 130.195C204.322 130.602 204.285 131.1 204.285 131.689C204.285 132.299 204.322 132.811 204.397 133.225C204.478 133.638 204.636 133.97 204.873 134.221C205.117 134.471 205.468 134.597 205.928 134.597C206.381 134.597 206.726 134.471 206.963 134.221C207.206 133.97 207.365 133.638 207.439 133.225C207.521 132.811 207.561 132.299 207.561 131.689ZM209.741 131.689C209.741 130.524 209.93 129.615 210.309 128.965C210.687 128.307 211.35 127.979 212.297 127.979C213.237 127.979 213.896 128.307 214.275 128.965C214.653 129.615 214.843 130.524 214.843 131.689C214.843 132.875 214.653 133.798 214.275 134.455C213.896 135.112 213.237 135.441 212.297 135.441C211.35 135.441 210.687 135.112 210.309 134.455C209.93 133.798 209.741 132.875 209.741 131.689ZM213.93 131.689C213.93 131.1 213.89 130.602 213.808 130.195C213.734 129.782 213.575 129.449 213.332 129.199C213.095 128.948 212.75 128.822 212.297 128.822C211.837 128.822 211.486 128.948 211.242 129.199C211.005 129.449 210.847 129.782 210.766 130.195C210.691 130.602 210.654 131.1 210.654 131.689C210.654 132.299 210.691 132.811 210.766 133.225C210.847 133.638 211.005 133.97 211.242 134.221C211.486 134.471 211.837 134.597 212.297 134.597C212.75 134.597 213.095 134.471 213.332 134.221C213.575 133.97 213.734 133.638 213.808 133.225C213.89 132.811 213.93 132.299 213.93 131.689Z" fill="#5658DD" fill-opacity="0.7"/>
<path d="M239.444 167.576C239.444 168.175 239.933 168.665 240.53 168.665H244.877C245.475 168.665 245.964 168.175 245.964 167.576V161.04H239.444V167.576ZM240.53 162.129H244.877V167.576H240.53V162.129ZM244.606 159.406L244.062 158.861H241.346L240.802 159.406H238.9V160.495H246.508V159.406H244.606Z" fill="#5658DD" fill-opacity="0.7"/>
<path d="M102.877 131.447H41.2955C36.6941 131.447 32.9639 135.186 32.9639 139.799C32.9639 144.411 36.6941 148.15 41.2955 148.15H102.877C107.479 148.15 111.209 144.411 111.209 139.799C111.209 135.186 107.479 131.447 102.877 131.447Z" fill="#0B0DAC"/>
<path d="M43.2985 143.147C42.6841 143.147 42.1567 143.019 41.7162 142.763C41.2815 142.507 40.9482 142.144 40.7164 141.674C40.4846 141.197 40.3687 140.637 40.3687 139.992C40.3687 139.347 40.4846 138.789 40.7164 138.319C40.9482 137.848 41.2815 137.485 41.7162 137.229C42.1567 136.974 42.6841 136.846 43.2985 136.846C43.739 136.846 44.1302 136.913 44.4722 137.046C44.8141 137.174 45.1126 137.363 45.3676 137.613L45.072 138.266C44.7938 138.022 44.5185 137.848 44.2461 137.744C43.9795 137.633 43.6694 137.578 43.3159 137.578C42.6378 137.578 42.119 137.787 41.7597 138.205C41.4003 138.624 41.2207 139.219 41.2207 139.992C41.2207 140.765 41.4003 141.363 41.7597 141.787C42.119 142.205 42.6378 142.414 43.3159 142.414C43.6694 142.414 43.9795 142.362 44.2461 142.258C44.5185 142.147 44.7938 141.97 45.072 141.726L45.3676 142.371C45.1126 142.621 44.8112 142.812 44.4635 142.946C44.1215 143.08 43.7332 143.147 43.2985 143.147ZM46.7984 143.068V139.757C46.7984 139.582 46.7926 139.405 46.781 139.225C46.7752 139.039 46.7607 138.859 46.7375 138.685H47.5026L47.5982 139.783L47.4678 139.791C47.5258 139.524 47.6243 139.303 47.7634 139.129C47.9083 138.949 48.0793 138.818 48.2763 138.737C48.4792 138.65 48.6878 138.606 48.9023 138.606C48.995 138.606 49.0733 138.609 49.137 138.615C49.2008 138.621 49.2645 138.635 49.3283 138.659L49.3109 139.364C49.224 139.33 49.1428 139.309 49.0675 139.303C48.9979 139.292 48.911 139.286 48.8067 139.286C48.5516 139.286 48.3314 139.344 48.1459 139.46C47.9662 139.577 47.8271 139.73 47.7286 139.922C47.6359 140.114 47.5895 140.32 47.5895 140.541V143.068H46.7984ZM52.3041 143.147C51.6085 143.147 51.0579 142.946 50.6522 142.545C50.2523 142.144 50.0523 141.592 50.0523 140.889C50.0523 140.425 50.1393 140.024 50.3132 139.687C50.4928 139.344 50.7392 139.08 51.0521 138.894C51.3651 138.702 51.7303 138.606 52.1476 138.606C52.5475 138.606 52.8866 138.693 53.1648 138.868C53.443 139.036 53.6545 139.277 53.7994 139.591C53.9443 139.905 54.0168 140.277 54.0168 140.706V140.968H50.6696V140.497H53.4777L53.3299 140.611C53.3299 140.157 53.2285 139.806 53.0257 139.556C52.8286 139.306 52.5359 139.181 52.1476 139.181C51.7245 139.181 51.397 139.33 51.1652 139.626C50.9333 139.916 50.8174 140.314 50.8174 140.82V140.898C50.8174 141.433 50.9478 141.836 51.2086 142.109C51.4752 142.383 51.8433 142.519 52.3128 142.519C52.5736 142.519 52.817 142.481 53.043 142.406C53.2691 142.33 53.4864 142.205 53.6951 142.031L53.9559 142.58C53.7588 142.76 53.5125 142.9 53.2169 142.998C52.9271 143.097 52.6228 143.147 52.3041 143.147ZM57.0677 143.147C56.6851 143.147 56.349 143.056 56.0592 142.876C55.7694 142.696 55.5433 142.435 55.381 142.092C55.2188 141.749 55.1376 141.343 55.1376 140.872C55.1376 140.401 55.2188 139.998 55.381 139.661C55.5433 139.318 55.7694 139.057 56.0592 138.876C56.349 138.696 56.6851 138.606 57.0677 138.606C57.4502 138.606 57.7835 138.702 58.0675 138.894C58.3573 139.086 58.5514 139.35 58.65 139.687H58.5456V136.654H59.3368V143.068H58.5543V142.048H58.65C58.5572 142.391 58.366 142.661 58.0762 142.859C57.7922 143.051 57.456 143.147 57.0677 143.147ZM57.2502 142.519C57.6444 142.519 57.9602 142.38 58.1979 142.101C58.4413 141.822 58.563 141.412 58.563 140.872C58.563 140.332 58.4413 139.925 58.1979 139.652C57.9602 139.379 57.6444 139.242 57.2502 139.242C56.8561 139.242 56.5373 139.379 56.2939 139.652C56.0563 139.925 55.9375 140.332 55.9375 140.872C55.9375 141.412 56.0563 141.822 56.2939 142.101C56.5373 142.38 56.8561 142.519 57.2502 142.519ZM61.0101 143.068V138.685H61.8012V143.068H61.0101ZM60.9405 137.726V136.872H61.8794V137.726H60.9405ZM65.1063 143.147C64.6484 143.147 64.3007 143.022 64.0631 142.772C63.8312 142.516 63.7153 142.133 63.7153 141.621V139.295H62.8633V138.685H63.7153V137.508L64.5065 137.29V138.685H65.741V139.295H64.5065V141.552C64.5065 141.889 64.5644 142.13 64.6803 142.275C64.802 142.414 64.9759 142.484 65.202 142.484C65.3179 142.484 65.4164 142.475 65.4976 142.458C65.5845 142.435 65.6627 142.409 65.7323 142.38V143.033C65.6453 143.068 65.5439 143.094 65.428 143.112C65.3179 143.135 65.2107 143.147 65.1063 143.147ZM72.3494 143.147C71.735 143.147 71.2076 143.019 70.7671 142.763C70.3324 142.507 69.9991 142.144 69.7673 141.674C69.5354 141.197 69.4195 140.637 69.4195 139.992C69.4195 139.347 69.5354 138.789 69.7673 138.319C69.9991 137.848 70.3324 137.485 70.7671 137.229C71.2076 136.974 71.735 136.846 72.3494 136.846C72.7898 136.846 73.1811 136.913 73.523 137.046C73.865 137.174 74.1635 137.363 74.4185 137.613L74.1229 138.266C73.8447 138.022 73.5694 137.848 73.297 137.744C73.0304 137.633 72.7203 137.578 72.3667 137.578C71.6886 137.578 71.1699 137.787 70.8105 138.205C70.4512 138.624 70.2715 139.219 70.2715 139.992C70.2715 140.765 70.4512 141.363 70.8105 141.787C71.1699 142.205 71.6886 142.414 72.3667 142.414C72.7203 142.414 73.0304 142.362 73.297 142.258C73.5694 142.147 73.8447 141.97 74.1229 141.726L74.4185 142.371C74.1635 142.621 73.8621 142.812 73.5143 142.946C73.1724 143.08 72.784 143.147 72.3494 143.147ZM77.3828 143.147C77.0003 143.147 76.6641 143.056 76.3743 142.876C76.0845 142.696 75.8585 142.435 75.6962 142.092C75.5339 141.749 75.4528 141.343 75.4528 140.872C75.4528 140.401 75.5339 139.998 75.6962 139.661C75.8585 139.318 76.0845 139.057 76.3743 138.876C76.6641 138.696 77.0003 138.606 77.3828 138.606C77.7712 138.606 78.1074 138.705 78.3914 138.903C78.6812 139.094 78.8725 139.359 78.9652 139.696H78.8609L78.9565 138.685H79.7216C79.7042 138.859 79.6868 139.033 79.6694 139.208C79.6578 139.382 79.652 139.553 79.652 139.722V143.068H78.8609V142.066H78.9565C78.8638 142.397 78.6725 142.661 78.3827 142.859C78.0987 143.051 77.7654 143.147 77.3828 143.147ZM77.5655 142.519C77.9596 142.519 78.2755 142.38 78.5131 142.101C78.7507 141.822 78.8696 141.412 78.8696 140.872C78.8696 140.332 78.7507 139.925 78.5131 139.652C78.2755 139.379 77.9596 139.242 77.5655 139.242C77.1713 139.242 76.8525 139.379 76.6091 139.652C76.3714 139.925 76.2526 140.332 76.2526 140.872C76.2526 141.412 76.3714 141.822 76.6091 142.101C76.8467 142.38 77.1655 142.519 77.5655 142.519ZM81.3169 143.068V139.757C81.3169 139.582 81.3111 139.405 81.2995 139.225C81.2937 139.039 81.2792 138.859 81.256 138.685H82.0211L82.1167 139.783L81.9863 139.791C82.0443 139.524 82.1428 139.303 82.2819 139.129C82.4268 138.949 82.5978 138.818 82.7948 138.737C82.9977 138.65 83.2064 138.606 83.4208 138.606C83.5135 138.606 83.5918 138.609 83.6555 138.615C83.7193 138.621 83.7831 138.635 83.8468 138.659L83.8294 139.364C83.7425 139.33 83.6613 139.309 83.586 139.303C83.5164 139.292 83.4295 139.286 83.3252 139.286C83.0702 139.286 82.8499 139.344 82.6644 139.46C82.4848 139.577 82.3457 139.73 82.2471 139.922C82.1544 140.114 82.108 140.32 82.108 140.541V143.068H81.3169ZM86.5006 143.147C86.1181 143.147 85.7819 143.056 85.4921 142.876C85.2023 142.696 84.9763 142.435 84.814 142.092C84.6517 141.749 84.5706 141.343 84.5706 140.872C84.5706 140.401 84.6517 139.998 84.814 139.661C84.9763 139.318 85.2023 139.057 85.4921 138.876C85.7819 138.696 86.1181 138.606 86.5006 138.606C86.8831 138.606 87.2164 138.702 87.5004 138.894C87.7902 139.086 87.9844 139.35 88.0829 139.687H87.9786V136.654H88.7697V143.068H87.9873V142.048H88.0829C87.9902 142.391 87.7989 142.661 87.5091 142.859C87.2251 143.051 86.8889 143.147 86.5006 143.147ZM86.6832 142.519C87.0773 142.519 87.3932 142.38 87.6308 142.101C87.8743 141.822 87.996 141.412 87.996 140.872C87.996 140.332 87.8743 139.925 87.6308 139.652C87.3932 139.379 87.0773 139.242 86.6832 139.242C86.2891 139.242 85.9703 139.379 85.7269 139.652C85.4892 139.925 85.3704 140.332 85.3704 140.872C85.3704 141.412 85.4892 141.822 85.7269 142.101C85.9703 142.38 86.2891 142.519 86.6832 142.519Z" fill="white"/>
<path d="M94.7054 137.959C94.7974 137.959 94.8887 137.993 94.9611 138.066L98.1105 141.223C98.3423 141.455 98.7191 141.455 98.9509 141.223L102.1 138.066C102.24 137.926 102.472 137.926 102.612 138.066C102.752 138.206 102.752 138.438 102.612 138.579L99.4631 141.735C98.9509 142.249 98.1156 142.249 97.5983 141.735L94.4497 138.579C94.3091 138.438 94.3091 138.206 94.4497 138.066C94.5221 137.998 94.6134 137.959 94.7054 137.959Z" fill="white"/>
<path d="M102.877 131.447H41.2955C36.6941 131.447 32.9639 135.186 32.9639 139.799C32.9639 144.411 36.6941 148.15 41.2955 148.15H102.877C107.479 148.15 111.209 144.411 111.209 139.799C111.209 135.186 107.479 131.447 102.877 131.447Z" stroke="#5658DD"/>
<g filter="url(#filter2_d_1559_22253)">
<path d="M252.847 298.838H29.7037C24.9022 298.838 21.0098 302.739 21.0098 307.552V350.398C21.0098 355.211 24.9022 359.112 29.7037 359.112H252.847C257.648 359.112 261.541 355.211 261.541 350.398V307.552C261.541 302.739 257.648 298.838 252.847 298.838Z" fill="#5658DD"/>
</g>
<path d="M37.6037 324.979V318.02H34.9028V316.788H41.8V318.02H39.0991V324.979H37.6037ZM44.9416 325.096C44.3388 325.096 43.8172 324.971 43.3767 324.724C42.9362 324.476 42.5923 324.123 42.345 323.666C42.1054 323.21 41.9857 322.667 41.9857 322.04C41.9857 321.412 42.1054 320.874 42.345 320.425C42.5923 319.968 42.9362 319.615 43.3767 319.367C43.8172 319.12 44.3388 318.996 44.9416 318.996C45.5444 318.996 46.066 319.12 46.5065 319.367C46.9547 319.615 47.2986 319.968 47.5382 320.425C47.7854 320.874 47.9091 321.412 47.9091 322.04C47.9091 322.667 47.7854 323.21 47.5382 323.666C47.2986 324.123 46.9547 324.476 46.5065 324.724C46.066 324.971 45.5444 325.096 44.9416 325.096ZM44.9416 323.98C45.3975 323.98 45.7607 323.821 46.0312 323.504C46.3017 323.178 46.4369 322.69 46.4369 322.04C46.4369 321.389 46.3017 320.905 46.0312 320.587C45.7607 320.27 45.3975 320.111 44.9416 320.111C44.4856 320.111 44.1224 320.27 43.852 320.587C43.5814 320.905 43.4462 321.389 43.4462 322.04C43.4462 322.69 43.5814 323.178 43.852 323.504C44.1224 323.821 44.4856 323.98 44.9416 323.98ZM52.0696 325.096C51.3741 325.096 50.8485 324.913 50.4931 324.55C50.1376 324.186 49.9599 323.64 49.9599 322.911V320.204H48.8354V319.112H49.9599V317.613L51.4088 317.241V319.112H52.9737V320.204H51.4088V322.818C51.4088 323.221 51.4861 323.504 51.6407 323.666C51.7952 323.829 52.0077 323.91 52.2782 323.91C52.425 323.91 52.5487 323.899 52.6492 323.876C52.7573 323.852 52.8617 323.821 52.9621 323.783V324.933C52.8307 324.987 52.6839 325.026 52.5217 325.049C52.3671 325.08 52.2164 325.096 52.0696 325.096ZM56.682 325.096C56.172 325.096 55.7238 324.976 55.3374 324.735C54.951 324.488 54.6496 324.135 54.4332 323.678C54.2168 323.221 54.1087 322.675 54.1087 322.04C54.1087 321.404 54.2168 320.863 54.4332 320.413C54.6496 319.956 54.951 319.608 55.3374 319.367C55.7238 319.12 56.172 318.996 56.682 318.996C57.1766 318.996 57.6094 319.12 57.9803 319.367C58.359 319.608 58.6101 319.933 58.7338 320.343H58.6063L58.7338 319.112H60.1248C60.1016 319.352 60.0785 319.596 60.0553 319.844C60.0398 320.091 60.0321 320.335 60.0321 320.576V324.979H58.5947L58.5831 323.771H58.7222C58.5985 324.174 58.3474 324.495 57.9687 324.735C57.5901 324.976 57.1612 325.096 56.682 325.096ZM57.0878 323.98C57.5437 323.98 57.9108 323.821 58.189 323.504C58.4672 323.178 58.6063 322.69 58.6063 322.04C58.6063 321.389 58.4672 320.905 58.189 320.587C57.9108 320.27 57.5437 320.111 57.0878 320.111C56.6318 320.111 56.2647 320.27 55.9865 320.587C55.7083 320.905 55.5692 321.389 55.5692 322.04C55.5692 322.69 55.7044 323.178 55.9749 323.504C56.2531 323.821 56.6241 323.98 57.0878 323.98ZM62.0736 324.979V316.428H63.5226V324.979H62.0736Z" fill="white"/>
<path d="M235.121 305.371H166.247C157.657 305.371 150.694 312.351 150.694 320.961C150.694 329.571 157.657 336.551 166.247 336.551H235.121C243.71 336.551 250.674 329.571 250.674 320.961C250.674 312.351 243.71 305.371 235.121 305.371Z" fill="white"/>
<path d="M181.166 317.965V316.967H174.646V317.965H176.72C177.492 317.965 178.144 318.384 178.389 318.964H174.646V319.962H178.389C178.267 320.254 178.042 320.506 177.742 320.684C177.444 320.864 177.087 320.959 176.72 320.961H174.646V322.166L177.957 324.955H179.633L176.077 321.959H176.72C177.403 321.959 178.065 321.76 178.594 321.396C179.123 321.032 179.486 320.526 179.624 319.962H181.166V318.964H179.624C179.533 318.6 179.346 318.259 179.076 317.965H181.166Z" fill="#5658DD"/>
<path d="M187.75 325.317V324.074H189.628V318.381H190.347L187.936 319.822V318.404L190.057 317.126H191.124V324.074H192.886V325.317H187.75ZM197.355 325.434C196.397 325.434 195.659 325.069 195.141 324.341C194.624 323.605 194.364 322.559 194.364 321.204C194.364 319.833 194.624 318.791 195.141 318.079C195.659 317.366 196.397 317.01 197.355 317.01C198.322 317.01 199.059 317.366 199.569 318.079C200.087 318.791 200.346 319.829 200.346 321.193C200.346 322.556 200.087 323.605 199.569 324.341C199.059 325.069 198.322 325.434 197.355 325.434ZM197.355 324.202C197.881 324.202 198.271 323.962 198.526 323.482C198.781 322.994 198.908 322.23 198.908 321.193C198.908 320.154 198.781 319.403 198.526 318.939C198.271 318.466 197.881 318.23 197.355 318.23C196.838 318.23 196.447 318.466 196.184 318.939C195.929 319.403 195.802 320.154 195.802 321.193C195.802 322.23 195.929 322.994 196.184 323.482C196.447 323.962 196.838 324.202 197.355 324.202ZM202.625 326.863L202.034 326.398C202.282 326.142 202.451 325.902 202.544 325.678C202.645 325.461 202.695 325.228 202.695 324.98L203.008 325.317H201.918V323.702H203.541V324.771C203.541 325.166 203.471 325.527 203.332 325.852C203.201 326.185 202.966 326.521 202.625 326.863ZM208.109 325.434C207.15 325.434 206.413 325.069 205.895 324.341C205.377 323.605 205.118 322.559 205.118 321.204C205.118 319.833 205.377 318.791 205.895 318.079C206.413 317.366 207.15 317.01 208.109 317.01C209.074 317.01 209.813 317.366 210.323 318.079C210.841 318.791 211.099 319.829 211.099 321.193C211.099 322.556 210.841 323.605 210.323 324.341C209.813 325.069 209.074 325.434 208.109 325.434ZM208.109 324.202C208.634 324.202 209.024 323.962 209.279 323.482C209.534 322.994 209.662 322.23 209.662 321.193C209.662 320.154 209.534 319.403 209.279 318.939C209.024 318.466 208.634 318.23 208.109 318.23C207.591 318.23 207.201 318.466 206.938 318.939C206.683 319.403 206.555 320.154 206.555 321.193C206.555 322.23 206.683 322.994 206.938 323.482C207.201 323.962 207.591 324.202 208.109 324.202ZM215.523 325.434C214.565 325.434 213.826 325.069 213.309 324.341C212.791 323.605 212.532 322.559 212.532 321.204C212.532 319.833 212.791 318.791 213.309 318.079C213.826 317.366 214.565 317.01 215.523 317.01C216.489 317.01 217.227 317.366 217.737 318.079C218.254 318.791 218.514 319.829 218.514 321.193C218.514 322.556 218.254 323.605 217.737 324.341C217.227 325.069 216.489 325.434 215.523 325.434ZM215.523 324.202C216.048 324.202 216.439 323.962 216.694 323.482C216.949 322.994 217.076 322.23 217.076 321.193C217.076 320.154 216.949 319.403 216.694 318.939C216.439 318.466 216.048 318.23 215.523 318.23C215.005 318.23 214.615 318.466 214.352 318.939C214.097 319.403 213.97 320.154 213.97 321.193C213.97 322.23 214.097 322.994 214.352 323.482C214.615 323.962 215.005 324.202 215.523 324.202ZM222.937 325.434C221.979 325.434 221.241 325.069 220.723 324.341C220.206 323.605 219.946 322.559 219.946 321.204C219.946 319.833 220.206 318.791 220.723 318.079C221.241 317.366 221.979 317.01 222.937 317.01C223.903 317.01 224.641 317.366 225.151 318.079C225.669 318.791 225.928 319.829 225.928 321.193C225.928 322.556 225.669 323.605 225.151 324.341C224.641 325.069 223.903 325.434 222.937 325.434ZM222.937 324.202C223.463 324.202 223.853 323.962 224.108 323.482C224.363 322.994 224.49 322.23 224.49 321.193C224.49 320.154 224.363 319.403 224.108 318.939C223.853 318.466 223.463 318.23 222.937 318.23C222.42 318.23 222.029 318.466 221.766 318.939C221.511 319.403 221.384 320.154 221.384 321.193C221.384 322.23 221.511 322.994 221.766 323.482C222.029 323.962 222.42 324.202 222.937 324.202Z" fill="#5658DD"/>
<path d="M254.296 64.8183C250 64.8183 246.508 61.318 246.508 57.0117C246.508 52.7053 250 49.2051 254.296 49.2051C258.592 49.2051 262.084 52.7053 262.084 57.0117C262.084 61.318 258.592 64.8183 254.296 64.8183ZM254.296 50.2944C250.601 50.2944 247.595 53.3081 247.595 57.0117C247.595 60.7153 250.601 63.729 254.296 63.729C257.991 63.729 260.998 60.7153 260.998 57.0117C260.998 53.3081 257.991 50.2944 254.296 50.2944Z" fill="#5658DD" fill-opacity="0.7"/>
<path d="M252.246 59.6118C252.108 59.6118 251.97 59.561 251.862 59.4521C251.652 59.2415 251.652 58.8929 251.862 58.6823L255.962 54.572C256.172 54.3614 256.52 54.3614 256.73 54.572C256.94 54.7826 256.94 55.1312 256.73 55.3418L252.63 59.4521C252.528 59.561 252.383 59.6118 252.246 59.6118Z" fill="#5658DD" fill-opacity="0.7"/>
<path d="M256.346 59.6118C256.209 59.6118 256.071 59.561 255.962 59.4521L251.862 55.3418C251.652 55.1312 251.652 54.7826 251.862 54.572C252.072 54.3614 252.42 54.3614 252.63 54.572L256.73 58.6823C256.94 58.8929 256.94 59.2415 256.73 59.4521C256.622 59.561 256.484 59.6118 256.346 59.6118Z" fill="#5658DD" fill-opacity="0.7"/>
</g>
</g>
</g>
<path d="M277.29 516.5C278.67 516.5 279.79 515.381 279.79 514V37C279.79 17.9462 264.343 2.5 245.29 2.5H37C17.9462 2.5 2.5 17.9462 2.5 37V514C2.5 515.381 3.61929 516.5 5 516.5H277.29Z" stroke="url(#paint0_linear_1559_22253)" stroke-width="5" stroke-linecap="round" stroke-linejoin="round"/>
<defs>
<filter id="filter0_d_1559_22253" x="20.1564" y="42.0653" width="32.1368" height="32.2018" filterUnits="userSpaceOnUse" color-interpolation-filters="sRGB">
<feFlood flood-opacity="0" result="BackgroundImageFix"/>
<feColorMatrix in="SourceAlpha" type="matrix" values="0 0 0 0 0 0 0 0 0 0 0 0 0 0 0 0 0 0 127 0" result="hardAlpha"/>
<feOffset dy="1.15152"/>
<feGaussianBlur stdDeviation="1.15152"/>
<feComposite in2="hardAlpha" operator="out"/>
<feColorMatrix type="matrix" values="0 0 0 0 0 0 0 0 0 0 0 0 0 0 0 0 0 0 0.25 0"/>
<feBlend mode="normal" in2="BackgroundImageFix" result="effect1_dropShadow_1559_22253"/>
<feBlend mode="normal" in="SourceGraphic" in2="effect1_dropShadow_1559_22253" result="shape"/>
</filter>
<filter id="filter1_d_1559_22253" x="17.0098" y="97.8594" width="248.531" height="90.0605" filterUnits="userSpaceOnUse" color-interpolation-filters="sRGB">
<feFlood flood-opacity="0" result="BackgroundImageFix"/>
<feColorMatrix in="SourceAlpha" type="matrix" values="0 0 0 0 0 0 0 0 0 0 0 0 0 0 0 0 0 0 127 0" result="hardAlpha"/>
<feOffset dy="2"/>
<feGaussianBlur stdDeviation="2"/>
<feComposite in2="hardAlpha" operator="out"/>
<feColorMatrix type="matrix" values="0 0 0 0 0.0421875 0 0 0 0 0.0515625 0 0 0 0 0.675 0 0 0 0.08 0"/>
<feBlend mode="normal" in2="BackgroundImageFix" result="effect1_dropShadow_1559_22253"/>
<feBlend mode="normal" in="SourceGraphic" in2="effect1_dropShadow_1559_22253" result="shape"/>
</filter>
<filter id="filter2_d_1559_22253" x="17.0098" y="296.838" width="248.531" height="68.2734" filterUnits="userSpaceOnUse" color-interpolation-filters="sRGB">
<feFlood flood-opacity="0" result="BackgroundImageFix"/>
<feColorMatrix in="SourceAlpha" type="matrix" values="0 0 0 0 0 0 0 0 0 0 0 0 0 0 0 0 0 0 127 0" result="hardAlpha"/>
<feOffset dy="2"/>
<feGaussianBlur stdDeviation="2"/>
<feComposite in2="hardAlpha" operator="out"/>
<feColorMatrix type="matrix" values="0 0 0 0 0.0421875 0 0 0 0 0.0515625 0 0 0 0 0.675 0 0 0 0.08 0"/>
<feBlend mode="normal" in2="BackgroundImageFix" result="effect1_dropShadow_1559_22253"/>
<feBlend mode="normal" in="SourceGraphic" in2="effect1_dropShadow_1559_22253" result="shape"/>
</filter>
<linearGradient id="paint0_linear_1559_22253" x1="277.29" y1="-52.3623" x2="4.99999" y2="528.885" gradientUnits="userSpaceOnUse">
<stop stop-color="#7987FF"/>
<stop offset="1" stop-color="#7987FF" stop-opacity="0"/>
</linearGradient>
<clipPath id="clip0_1559_22253">
<path d="M5 37C5 19.3269 19.3269 5 37 5H245.29C262.963 5 277.29 19.3269 277.29 37V514H5V37Z" fill="white"/>
</clipPath>
<clipPath id="clip1_1559_22253">
<rect width="272" height="590" fill="white" transform="translate(6 3)"/>
</clipPath>
</defs>
</svg>
