<svg width="60" height="60" viewBox="0 0 60 60" fill="none" xmlns="http://www.w3.org/2000/svg">
<g clip-path="url(#clip0_173_3809)">
<path d="M22.5 4.68753C23.6297 4.68418 24.7453 4.93824 25.7622 5.43044C26.7791 5.92264 27.6705 6.64003 28.3687 7.52816C25.66 7.6799 23.0795 8.73163 21.0364 10.5166C18.9933 12.3015 17.6046 14.7175 17.0906 17.3813C16.0725 16.3207 15.3886 14.9842 15.1238 13.538C14.8591 12.0919 15.0252 10.5998 15.6016 9.24729C16.178 7.89478 17.1391 6.7415 18.3656 5.93081C19.5921 5.12012 21.0298 4.68778 22.5 4.68753V4.68753Z" fill="#E5F788"/>
<path d="M30.9 4.71569C31.8045 5.72626 32.5191 6.89183 33.0094 8.15632C31.7387 7.72238 30.4053 7.50066 29.0625 7.50007C28.8282 7.50007 28.6032 7.50944 28.3688 7.52819C27.7418 6.72282 26.9571 6.05388 26.0626 5.56234C25.1681 5.07081 24.1827 4.76701 23.1668 4.66956C22.1508 4.5721 21.1256 4.68304 20.154 4.99558C19.1824 5.30811 18.2848 5.81568 17.5162 6.48718C16.7475 7.15869 16.1241 7.98001 15.6839 8.90087C15.2437 9.82172 14.9962 10.8227 14.9563 11.8426C14.9165 12.8624 15.0852 13.8797 15.4522 14.8321C15.8192 15.7845 16.3768 16.6519 17.0907 17.3813C16.797 18.9306 16.8033 20.5219 17.1094 22.0688C15.6684 21.2837 14.4167 20.1929 13.4419 18.8728C12.4671 17.5528 11.7929 16.0355 11.4665 14.4273C11.1402 12.8191 11.1696 11.159 11.5527 9.56338C11.9359 7.96776 12.6634 6.47528 13.6843 5.19059C14.7053 3.9059 15.9949 2.86012 17.4628 2.12657C18.9307 1.39302 20.5413 0.989469 22.1816 0.94422C23.8219 0.89897 25.4523 1.21312 26.9584 1.86463C28.4645 2.51614 29.8098 3.48924 30.9 4.71569V4.71569Z" fill="#E5F788"/>
<path d="M43.125 11.25L39.7312 13.8C38.578 11.7055 36.8336 9.99691 34.7156 8.8875L37.5 7.5L43.125 11.25Z" fill="#EBF2C4"/>
<path d="M29.0625 31.875C35.7935 31.875 41.25 26.4185 41.25 19.6875C41.25 12.9565 35.7935 7.5 29.0625 7.5C22.3315 7.5 16.875 12.9565 16.875 19.6875C16.875 26.4185 22.3315 31.875 29.0625 31.875Z" fill="#E5F788"/>
<path d="M59.0184 6.5625V21.5625H53.3934V19.6875V8.4375V6.5625H59.0184Z" fill="#E5F788"/>
<path d="M59.0184 6.5625V21.5625H56.2059V19.6875V8.4375V6.5625H59.0184Z" fill="#E5F788"/>
<path d="M37.3997 18.7501C37.4374 19.0612 37.4562 19.3742 37.456 19.6876C37.4592 21.6634 36.7701 23.578 35.5084 25.0985C34.2467 26.6191 32.4921 27.6495 30.5495 28.0107C28.607 28.3719 26.5993 28.0411 24.8753 27.0758C23.1513 26.1105 21.82 24.5716 21.1128 22.7267C20.4056 20.8818 20.3671 18.8473 21.0041 16.977C21.6411 15.1066 22.9132 13.5185 24.5995 12.4887C26.2857 11.4589 28.2795 11.0525 30.2343 11.34C32.1891 11.6275 33.9814 12.5909 35.2997 14.0626H32.2997C31.6781 14.0626 31.082 14.3095 30.6424 14.7491C30.2029 15.1886 29.956 15.7847 29.956 16.4063C29.956 17.028 30.2029 17.6241 30.6424 18.0636C31.082 18.5032 31.6781 18.7501 32.2997 18.7501H37.3997Z" fill="#E5F788"/>
<path d="M27.1434 12.1875C29.0667 12.1881 30.9313 12.8501 32.4244 14.0625H35.2997C33.9432 12.5444 32.083 11.5686 30.063 11.3154C28.0429 11.0623 25.9995 11.5489 24.3103 12.6853C25.2191 12.3581 26.1775 12.1897 27.1434 12.1875V12.1875Z" fill="#FFCF94"/>
<path d="M37.3997 18.75H32.2997C31.8639 18.7514 31.4364 18.6309 31.0655 18.4021C30.6946 18.1733 30.3951 17.8453 30.2008 17.4552C30.0066 17.0651 29.9253 16.6285 29.9662 16.1946C30.007 15.7607 30.1685 15.3469 30.4322 15H30.4247C29.8031 15 29.2069 15.2469 28.7674 15.6865C28.3279 16.126 28.0809 16.7221 28.0809 17.3438C28.0809 17.9654 28.3279 18.5615 28.7674 19.001C29.2069 19.4406 29.8031 19.6875 30.4247 19.6875H35.5247C35.5624 19.9986 35.5812 20.3116 35.5809 20.625C35.5816 22.0086 35.2417 23.371 34.5913 24.5922C33.9409 25.8133 33 26.8556 31.8516 27.6272C33.4903 27.043 34.9084 25.9666 35.9116 24.5453C36.9149 23.1239 37.4543 21.4272 37.4559 19.6875C37.4562 19.3741 37.4374 19.0611 37.3997 18.75Z" fill="#FFCF94"/>
<path d="M35.2997 12.1875C34.1612 10.9137 32.6626 10.0157 31.0024 9.6126C29.3422 9.20948 27.5986 9.32019 26.0028 9.93009C24.4069 10.54 23.0339 11.6203 22.0657 13.0279C21.0975 14.4355 20.5797 16.1041 20.5809 17.8125C20.5869 18.1066 20.6082 18.4001 20.6447 18.6919C20.8346 17.08 21.4859 15.5572 22.5204 14.3064C23.5549 13.0557 24.9285 12.1303 26.4762 11.6414C28.0239 11.1525 29.6799 11.1209 31.2451 11.5504C32.8103 11.9799 34.2182 12.8522 35.2997 14.0625H39.3309L39.6872 13.8C39.3695 13.2345 39.0071 12.6953 38.6034 12.1875H35.2997Z" fill="#E5F788"/>
<path d="M37.4006 20.625H39.3309C39.88 20.9665 40.4578 21.2595 41.0578 21.5006C41.1518 20.9007 41.2014 20.2947 41.2059 19.6875C40.5529 19.4344 39.9251 19.1206 39.3309 18.75H37.3997C37.4374 19.0611 37.4561 19.3741 37.4559 19.6875C37.455 20.0008 37.4365 20.3138 37.4006 20.625V20.625Z" fill="#E5F788"/>
<path d="M29.9559 18.75H28.0809C27.8323 18.75 27.5938 18.6512 27.418 18.4754C27.2422 18.2996 27.1434 18.0611 27.1434 17.8125C27.1434 17.5639 27.2422 17.3254 27.418 17.1496C27.5938 16.9738 27.8323 16.875 28.0809 16.875H29.9559C30.079 16.875 30.201 16.8992 30.3147 16.9464C30.4284 16.9935 30.5318 17.0625 30.6188 17.1496C30.7059 17.2366 30.775 17.34 30.8221 17.4537C30.8692 17.5675 30.8934 17.6894 30.8934 17.8125H32.7684C32.7684 17.0666 32.4721 16.3512 31.9447 15.8238C31.4172 15.2963 30.7019 15 29.9559 15V14.0625H28.0809V15C27.335 15 26.6196 15.2963 26.0922 15.8238C25.5648 16.3512 25.2684 17.0666 25.2684 17.8125C25.2684 18.5584 25.5648 19.2738 26.0922 19.8012C26.6196 20.3287 27.335 20.625 28.0809 20.625H29.9559C30.2046 20.625 30.443 20.7238 30.6188 20.8996C30.7947 21.0754 30.8934 21.3139 30.8934 21.5625C30.8934 21.8111 30.7947 22.0496 30.6188 22.2254C30.443 22.4012 30.2046 22.5 29.9559 22.5H28.0809C27.8323 22.5 27.5938 22.4012 27.418 22.2254C27.2422 22.0496 27.1434 21.8111 27.1434 21.5625H25.2684C25.2684 22.3084 25.5648 23.0238 26.0922 23.5512C26.6196 24.0787 27.335 24.375 28.0809 24.375V25.3125H29.9559V24.375C30.7019 24.375 31.4172 24.0787 31.9447 23.5512C32.4721 23.0238 32.7684 22.3084 32.7684 21.5625C32.7684 20.8166 32.4721 20.1012 31.9447 19.5738C31.4172 19.0463 30.7019 18.75 29.9559 18.75V18.75Z" fill="#E5F788"/>
<path d="M53.4375 8.4375V19.6875C50.978 20.2662 48.4638 20.5805 45.9375 20.625C44.3299 20.6108 42.7394 20.2927 41.25 19.6875C40.597 19.4344 39.9692 19.1206 39.375 18.75H32.3438C31.7221 18.75 31.126 18.5031 30.6865 18.0635C30.2469 17.624 30 17.0279 30 16.4062C30 15.7846 30.2469 15.1885 30.6865 14.749C31.126 14.3094 31.7221 14.0625 32.3438 14.0625H39.375L39.7313 13.8L43.125 11.25L37.5 7.5L34.7156 8.8875C34.1666 8.59999 33.5962 8.35551 33.0094 8.15625C32.5191 6.89177 31.8045 5.7262 30.9 4.71563L30.9375 4.6875L36.5625 0.9375L53.4375 8.4375Z" fill="#FAFFDE"/>
<path d="M36.5625 0.9375L30.9375 4.6875L30.9 4.71563C31.2451 5.1059 31.5621 5.52005 31.8488 5.955L36.5625 2.8125L53.4375 10.3125V8.4375L36.5625 0.9375Z" fill="#EBF2C4"/>
<path d="M41.2059 17.8125C40.553 17.5594 39.9252 17.2456 39.3309 16.875H32.2997C31.8439 16.8748 31.398 16.7416 31.0167 16.4918C30.6354 16.2421 30.3352 15.8865 30.1528 15.4688C29.9972 15.8253 29.9328 16.215 29.9654 16.6027C29.998 16.9904 30.1266 17.3639 30.3397 17.6895C30.5527 18.015 30.8434 18.2825 31.1856 18.4676C31.5277 18.6527 31.9106 18.7498 32.2997 18.75H39.3309C39.9252 19.1206 40.553 19.4344 41.2059 19.6875C42.6954 20.2927 44.2858 20.6108 45.8934 20.625C48.4197 20.5805 50.934 20.2662 53.3934 19.6875V17.8125C50.934 18.3912 48.4197 18.7055 45.8934 18.75C44.2858 18.7358 42.6954 18.4177 41.2059 17.8125Z" fill="#EBF2C4"/>
<path d="M26.5359 5.86426C24.0447 6.31948 21.7225 7.43903 19.8148 9.10468C17.9071 10.7703 16.4846 12.9202 15.6975 15.3274C16.0453 16.0843 16.516 16.7784 17.0906 17.3814C17.6047 14.7176 18.9934 12.3017 21.0364 10.5167C23.0795 8.7318 25.66 7.68006 28.3688 7.52832C27.8558 6.87447 27.2362 6.31188 26.5359 5.86426V5.86426Z" fill="#E5F788"/>
<path d="M26.5359 5.86408C27.2361 6.3117 27.8557 6.87429 28.3687 7.52815C28.6031 7.5094 28.8281 7.50002 29.0625 7.50002C30.4052 7.50062 31.7386 7.72234 33.0093 8.15627C32.6959 7.36075 32.2936 6.60314 31.8103 5.89783C30.0708 5.54579 28.2797 5.53432 26.5359 5.86408V5.86408Z" fill="#E5F788"/>
<path d="M16.875 19.6875C16.8753 18.9137 16.9475 18.1416 17.0906 17.3812C16.516 16.7782 16.0452 16.0841 15.6975 15.3271C15.2363 16.7347 15.0009 18.2063 15 19.6875C15 19.9996 15.0262 20.3053 15.0469 20.6118C15.6773 21.1736 16.3692 21.6623 17.1094 22.0687C16.9549 21.2843 16.8764 20.4869 16.875 19.6875V19.6875Z" fill="#E5F788"/>
<path d="M43.7879 27.8504L45.9376 25.7008V36.5626H47.8126V25.7008L49.9622 27.8504L51.2879 26.5248L47.5379 22.7748L47.5313 22.7814C47.4457 22.6931 47.3433 22.6229 47.2302 22.5747C47.117 22.5266 46.9954 22.5015 46.8725 22.501C46.7495 22.5005 46.6277 22.5245 46.5142 22.5717C46.4006 22.6189 46.2977 22.6882 46.2113 22.7758L42.4613 26.5258L43.7879 27.8504Z" fill="#E5F788"/>
<path d="M40.3125 55.3125C43.9369 55.3125 46.875 52.3744 46.875 48.75C46.875 45.1256 43.9369 42.1875 40.3125 42.1875C36.6881 42.1875 33.75 45.1256 33.75 48.75C33.75 52.3744 36.6881 55.3125 40.3125 55.3125Z" fill="#E5F788"/>
<path d="M40.3125 52.5C42.3836 52.5 44.0625 50.8211 44.0625 48.75C44.0625 46.6789 42.3836 45 40.3125 45C38.2414 45 36.5625 46.6789 36.5625 48.75C36.5625 50.8211 38.2414 52.5 40.3125 52.5Z" fill="#E5F788"/>
<path d="M33.3188 36.2813L51.5625 31.875L53.4375 38.4375H24.375L33.3188 36.2813Z" fill="#E5F788"/>
<path d="M59.0625 38.4375V59.0625H21.5625V51.5625H25.3125V53.4375C25.8093 53.439 26.2854 53.637 26.6367 53.9883C26.988 54.3396 27.186 54.8157 27.1875 55.3125H53.4375C53.439 54.8157 53.637 54.3396 53.9883 53.9883C54.3396 53.637 54.8157 53.439 55.3125 53.4375V44.0625C54.8157 44.061 54.3396 43.863 53.9883 43.5117C53.637 43.1604 53.439 42.6843 53.4375 42.1875H27.1875C27.186 42.6843 26.988 43.1604 26.6367 43.5117C26.2854 43.863 25.8093 44.061 25.3125 44.0625V46.875H21.5625V38.4375H59.0625Z" fill="#E5F788"/>
<path d="M25.3125 53.4375V51.5625H21.5625V59.0625H23.4375V55.3125C23.4375 54.8152 23.635 54.3383 23.9867 53.9867C24.3383 53.635 24.8152 53.4375 25.3125 53.4375V53.4375Z" fill="#E5F788"/>
<path d="M23.4375 43.125C23.4375 42.3791 23.7338 41.6637 24.2613 41.1363C24.7887 40.6088 25.5041 40.3125 26.25 40.3125H59.0625V38.4375H21.5625V46.875H23.4375V43.125Z" fill="#E5F788"/>
<path d="M6.5625 52.5V54.375H0.9375V39.375H6.5625V41.25V52.5Z" fill="#E5F788"/>
<path d="M6.5625 52.5V54.375H3.75V39.375H6.5625V41.25V52.5Z" fill="#E5F788"/>
<path d="M21.5625 46.875H27.6563C28.2779 46.875 28.874 47.1219 29.3135 47.5615C29.7531 48.001 30 48.5971 30 49.2188C30 49.8404 29.7531 50.4365 29.3135 50.876C28.874 51.3156 28.2779 51.5625 27.6563 51.5625H20.625C18.6441 52.7622 16.3782 53.4096 14.0625 53.4375C11.5362 53.393 9.02198 53.0787 6.5625 52.5V41.25L23.4375 33.75L30.9375 34.6875L33.3188 36.2813L24.375 38.4375H21.5625V46.875Z" fill="#FAFFDE"/>
<path d="M24.375 36.5627H23.4375C22.9402 36.5627 22.4633 36.7602 22.1117 37.1119C21.76 37.4635 21.5625 37.9404 21.5625 38.4377H24.375L33.3188 36.2814L31.2562 34.9033L24.375 36.5627Z" fill="#E3EBB5"/>
<path d="M29.3156 49.0031C29.0976 49.2206 28.8388 49.393 28.554 49.5105C28.2693 49.6279 27.9642 49.6881 27.6562 49.6875H20.625C18.6441 50.8872 16.3782 51.5346 14.0625 51.5625C11.5362 51.518 9.02198 51.2037 6.5625 50.625V52.5C9.02198 53.0787 11.5362 53.393 14.0625 53.4375C16.3782 53.4096 18.6441 52.7622 20.625 51.5625H27.6562C28.0457 51.5633 28.4291 51.4669 28.7719 51.282C29.1146 51.0971 29.4057 50.8296 29.6189 50.5037C29.832 50.1778 29.9604 49.8038 29.9924 49.4157C30.0244 49.0276 29.959 48.6377 29.8022 48.2812C29.6869 48.5504 29.5219 48.7953 29.3156 49.0031V49.0031Z" fill="#E3EBB5"/>
<path d="M25.3125 51.5625H27.6562C28.2779 51.5625 28.874 51.3156 29.3135 50.876C29.7531 50.4365 30 49.8404 30 49.2188C30 48.5971 29.7531 48.001 29.3135 47.5615C28.874 47.1219 28.2779 46.875 27.6562 46.875H25.3125V44.0625C25.8093 44.061 26.2854 43.863 26.6367 43.5117C26.988 43.1604 27.186 42.6843 27.1875 42.1875H40.3125C38.572 42.1875 36.9028 42.8789 35.6721 44.1096C34.4414 45.3403 33.75 47.0095 33.75 48.75C33.75 50.4905 34.4414 52.1597 35.6721 53.3904C36.9028 54.6211 38.572 55.3125 40.3125 55.3125H27.1875C27.186 54.8157 26.988 54.3396 26.6367 53.9883C26.2854 53.637 25.8093 53.439 25.3125 53.4375V51.5625Z" fill="#F0F0F0"/>
<path d="M55.3125 44.0625V53.4375C54.8157 53.439 54.3396 53.637 53.9883 53.9883C53.637 54.3396 53.439 54.8157 53.4375 55.3125H40.3125C42.053 55.3125 43.7222 54.6211 44.9529 53.3904C46.1836 52.1597 46.875 50.4905 46.875 48.75C46.875 47.0095 46.1836 45.3403 44.9529 44.1096C43.7222 42.8789 42.053 42.1875 40.3125 42.1875H53.4375C53.439 42.6843 53.637 43.1604 53.9883 43.5117C54.3396 43.863 54.8157 44.061 55.3125 44.0625V44.0625Z" fill="#F0F0F0"/>
<path d="M21.5625 38.4375V46.875H20.625L16.875 44.0625C16.9423 42.7941 17.3189 41.5614 17.9719 40.4719C18.6563 39.3281 19.5937 38.4375 20.625 38.4375H21.5625Z" fill="#E3EBB5"/>
<path d="M9.64966 28.3997L7.49997 30.5494V19.6875H5.62497V30.5494L3.47528 28.3997L2.14966 29.7253L5.89966 33.4753L5.90622 33.4688C5.99184 33.557 6.09422 33.6273 6.20735 33.6754C6.32048 33.7235 6.44209 33.7486 6.56504 33.7491C6.68799 33.7497 6.80981 33.7256 6.92334 33.6785C7.03688 33.6313 7.13985 33.5619 7.22622 33.4744L10.9762 29.7244L9.64966 28.3997Z" fill="#E5F788"/>
<path d="M5.625 15.9375H7.5V17.8125H5.625V15.9375Z" fill="#E5F788"/>
<path d="M41.25 47.2633L43.7878 44.7255L42.4622 43.3999L40.3125 45.5496L38.1628 43.3999L36.8372 44.7255L39.375 47.2633V47.8127H37.5V49.6877H39.375V50.6252H37.5V52.5002H39.375V53.4377H41.25V52.5002H43.125V50.6252H41.25V49.6877H43.125V47.8127H41.25V47.2633Z" fill="#E5F788"/>
<path d="M59.0625 5.62513H53.4375C53.1889 5.62513 52.9504 5.7239 52.7746 5.89972C52.5988 6.07553 52.5 6.31399 52.5 6.56263V6.99482L36.9432 0.0807528C36.7987 0.0165649 36.6403 -0.010046 36.4828 0.00339462C36.3253 0.0168353 36.1737 0.069891 36.0422 0.157628L31.0247 3.50263C29.7951 2.29426 28.3229 1.36072 26.7055 0.763766C25.0881 0.16681 23.3624 -0.0799641 21.6426 0.0397653C19.9227 0.159495 18.2479 0.642999 16.7288 1.4583C15.2098 2.2736 13.8811 3.40212 12.8307 4.76922C11.7804 6.13632 11.0322 7.71084 10.6357 9.38866C10.2393 11.0665 10.2035 12.8093 10.5309 14.502C10.8583 16.1946 11.5412 17.7985 12.5347 19.2075C13.5282 20.6165 14.8094 21.7986 16.2938 22.6754C16.9995 25.7032 18.7578 28.3819 21.255 30.2337C23.7522 32.0855 26.8261 32.9902 29.9283 32.7862C33.0305 32.5823 35.9595 31.2831 38.1928 29.1203C40.4261 26.9575 41.8186 24.0717 42.1219 20.9776C43.3583 21.3582 44.6439 21.5553 45.9375 21.5626C48.1426 21.5333 50.3399 21.2954 52.5 20.852V21.5626C52.5 21.8113 52.5988 22.0497 52.7746 22.2255C52.9504 22.4014 53.1889 22.5001 53.4375 22.5001H59.0625C59.3112 22.5001 59.5496 22.4014 59.7255 22.2255C59.9013 22.0497 60 21.8113 60 21.5626V6.56263C60 6.31399 59.9013 6.07553 59.7255 5.89972C59.5496 5.7239 59.3112 5.62513 59.0625 5.62513ZM12.1875 12.1876C12.1901 9.94726 12.9221 7.76865 14.273 5.98134C15.6238 4.19403 17.52 2.89524 19.6746 2.28143C21.8293 1.66762 24.1252 1.77217 26.2152 2.57928C28.3051 3.38638 30.0754 4.85213 31.2582 6.75482C30.533 6.62933 29.7985 6.56504 29.0625 6.56263C28.9688 6.56263 28.875 6.57482 28.7813 6.57669C27.9967 5.68454 27.0302 4.9707 25.9468 4.48316C24.8634 3.99562 23.6881 3.74567 22.5 3.75013C20.8855 3.74781 19.3042 4.20947 17.9445 5.08016C16.5848 5.95085 15.5039 7.1939 14.8304 8.66135C14.157 10.1288 13.9194 11.7588 14.146 13.3575C14.3725 14.9561 15.0536 16.456 16.1082 17.6786C15.9995 18.3428 15.9424 19.0145 15.9375 19.6876C15.9375 19.8404 15.9554 19.9886 15.96 20.1404C14.7826 19.176 13.8336 17.9625 13.1813 16.5874C12.529 15.2123 12.1896 13.7096 12.1875 12.1876V12.1876ZM26.3175 6.85607C24.1334 7.32959 22.1057 8.35156 20.4258 9.82562C18.7459 11.2997 17.4691 13.1773 16.7157 15.2814C16.0146 13.9759 15.7765 12.4714 16.0402 11.0133C16.3038 9.5551 17.0537 8.22927 18.1675 7.25194C19.2813 6.27461 20.6934 5.70344 22.1734 5.63155C23.6535 5.55965 25.1143 5.99129 26.3175 6.85607V6.85607ZM29.0625 30.9376C27.1344 30.9402 25.238 30.4471 23.5553 29.5058C21.8726 28.5644 20.4601 27.2064 19.4533 25.562C18.4465 23.9177 17.8792 22.0421 17.8059 20.1154C17.7326 18.1887 18.1557 16.2755 19.0346 14.5593C19.9135 12.8432 21.2188 11.3818 22.8251 10.3153C24.4314 9.24879 26.2849 8.61305 28.2076 8.46905C30.1303 8.32506 32.0578 8.67765 33.805 9.49299C35.5523 10.3083 37.0606 11.5591 38.1854 13.1251H35.7329C34.2084 11.5839 32.1961 10.6199 30.0397 10.3976C27.8833 10.1754 25.7167 10.7087 23.9099 11.9066C22.1031 13.1044 20.7683 14.8924 20.1334 16.9652C19.4986 19.0379 19.6031 21.2668 20.4291 23.2711C21.2552 25.2753 22.7515 26.9306 24.6624 27.9541C26.5734 28.9776 28.7804 29.3058 30.9065 28.8828C33.0326 28.4597 34.9459 27.3116 36.3195 25.6345C37.693 23.9574 38.4417 21.8554 38.4375 19.6876H39.1088C39.4893 19.908 39.8807 20.1089 40.2816 20.2895C40.1277 23.1623 38.879 25.867 36.7923 27.8475C34.7056 29.828 31.9395 30.9338 29.0625 30.9376ZM29.1104 16.8751C29.2109 17.5902 29.5455 18.2519 30.0619 18.7567C30.0413 18.7567 30.0216 18.7501 30 18.7501H28.125C27.8764 18.7501 27.6379 18.6514 27.4621 18.4755C27.2863 18.2997 27.1875 18.0613 27.1875 17.8126C27.1875 17.564 27.2863 17.3255 27.4621 17.1497C27.6379 16.9739 27.8764 16.8751 28.125 16.8751H29.1104ZM30 14.117V14.0626H28.125V15.0001C27.3791 15.0001 26.6638 15.2964 26.1363 15.8239C25.6089 16.3513 25.3125 17.0667 25.3125 17.8126C25.3125 18.5585 25.6089 19.2739 26.1363 19.8014C26.6638 20.3288 27.3791 20.6251 28.125 20.6251H30C30.2487 20.6251 30.4871 20.7239 30.663 20.8997C30.8388 21.0755 30.9375 21.314 30.9375 21.5626C30.9375 21.8113 30.8388 22.0497 30.663 22.2255C30.4871 22.4014 30.2487 22.5001 30 22.5001H28.125C27.8764 22.5001 27.6379 22.4014 27.4621 22.2255C27.2863 22.0497 27.1875 21.8113 27.1875 21.5626H25.3125C25.3125 22.3085 25.6089 23.0239 26.1363 23.5514C26.6638 24.0788 27.3791 24.3751 28.125 24.3751V25.3126H30V24.3751C30.5472 24.3772 31.083 24.219 31.5413 23.9201C31.9997 23.6212 32.3605 23.1947 32.5792 22.6931C32.7979 22.1915 32.865 21.6369 32.7722 21.0977C32.6794 20.5584 32.4307 20.0581 32.0569 19.6586C32.1507 19.667 32.2444 19.6876 32.3438 19.6876H36.5625C36.5679 21.3389 36.0298 22.9461 35.0314 24.2613C34.033 25.5766 32.6297 26.5269 31.0378 26.9657C29.4459 27.4045 27.7538 27.3075 26.2225 26.6895C24.6912 26.0716 23.4057 24.9671 22.5642 23.5463C21.7227 22.1256 21.3719 20.4674 21.566 18.8276C21.76 17.1878 22.4881 15.6573 23.638 14.4722C24.7879 13.2871 26.2957 12.5131 27.929 12.2697C29.5622 12.0263 31.2302 12.3269 32.6757 13.1251H32.3438C31.9066 13.1253 31.474 13.2131 31.0714 13.3835C30.6688 13.5539 30.3045 13.8033 30 14.117V14.117ZM45.9375 19.6876C43.8077 19.6548 41.724 19.0625 39.8954 17.9701C39.7411 17.8677 39.5602 17.8129 39.375 17.8126H32.3438C31.9708 17.8126 31.6131 17.6645 31.3494 17.4007C31.0857 17.137 30.9375 16.7793 30.9375 16.4064C30.9375 16.0334 31.0857 15.6757 31.3494 15.412C31.6131 15.1483 31.9708 15.0001 32.3438 15.0001H39.375C39.5779 15.0001 39.7753 14.9343 39.9375 14.8126L43.6875 12.0001L42.5625 10.5001L39.99 12.4295C38.4732 10.1447 36.278 8.39311 33.7135 7.42138C33.3347 6.53455 32.851 5.69638 32.2725 4.92482L36.6563 2.0045L52.5 9.047V18.9376C50.3422 19.4007 48.1442 19.6519 45.9375 19.6876V19.6876ZM58.125 20.6251H54.375V7.50013H58.125V20.6251Z" fill="black"/>
<path d="M55.3125 17.8125H57.1875V19.6875H55.3125V17.8125Z" fill="black"/>
<path d="M2.8125 50.625H4.6875V52.5H2.8125V50.625Z" fill="black"/>
<path d="M59.0625 37.5003H54.1444L52.4634 31.6184C52.399 31.3836 52.2451 31.1834 52.0348 31.0608C51.8245 30.9381 51.5745 30.9027 51.3384 30.9621L47.8125 31.8162V25.7009L49.9622 27.8506L51.2878 26.5249L47.5378 22.7749L47.5313 22.7815C47.4464 22.692 47.3442 22.6206 47.231 22.5716C47.1178 22.5226 46.9958 22.4971 46.8725 22.4966C46.7491 22.4961 46.6269 22.5205 46.5133 22.5685C46.3996 22.6165 46.2969 22.6871 46.2112 22.7759L42.4612 26.5259L43.7869 27.8515L45.9375 25.7009V32.269L33.5016 35.269L31.4578 33.9059C31.3366 33.8252 31.1983 33.7738 31.0538 33.7559L23.5538 32.8184C23.3846 32.7977 23.2129 32.823 23.0569 32.8915L7.5 39.8074V39.3753C7.5 39.1266 7.40123 38.8882 7.22541 38.7123C7.0496 38.5365 6.81114 38.4378 6.5625 38.4378H0.9375C0.68886 38.4378 0.450403 38.5365 0.274587 38.7123C0.0987721 38.8882 0 39.1266 0 39.3753L0 54.3753C0 54.6239 0.0987721 54.8623 0.274587 55.0382C0.450403 55.214 0.68886 55.3128 0.9375 55.3128H6.5625C6.81114 55.3128 7.0496 55.214 7.22541 55.0382C7.40123 54.8623 7.5 54.6239 7.5 54.3753V53.6646C9.66018 54.108 11.8575 54.3459 14.0625 54.3753C16.3588 54.35 18.6131 53.7574 20.625 52.6503V59.0628C20.625 59.3114 20.7238 59.5498 20.8996 59.7257C21.0754 59.9015 21.3139 60.0003 21.5625 60.0003H59.0625C59.3111 60.0003 59.5496 59.9015 59.7254 59.7257C59.9012 59.5498 60 59.3114 60 59.0628V38.4378C60 38.1891 59.9012 37.9507 59.7254 37.7748C59.5496 37.599 59.3111 37.5003 59.0625 37.5003V37.5003ZM50.9062 33.0003L52.1944 37.5003H32.25L33.1397 37.2856L33.2259 37.3428L33.2887 37.249L47.79 33.7503H47.8125V33.7446L50.9062 33.0003ZM5.625 53.4378H1.875V40.3128H5.625V53.4378ZM14.0625 52.5003C11.8558 52.4641 9.65792 52.213 7.5 51.7503V41.8596L23.58 34.7121L30.6019 35.5906L31.02 35.8718L24.2644 37.5003H21.5625C21.3139 37.5003 21.0754 37.599 20.8996 37.7748C20.7238 37.9507 20.625 38.1891 20.625 38.4378V45.7034L17.4375 43.3128L16.3125 44.8128L20.0625 47.6253C20.2248 47.747 20.4222 47.8128 20.625 47.8128H27.6562C28.0292 47.8128 28.3869 47.9609 28.6506 48.2246C28.9143 48.4884 29.0625 48.846 29.0625 49.219C29.0625 49.592 28.9143 49.9497 28.6506 50.2134C28.3869 50.4771 28.0292 50.6253 27.6562 50.6253H20.625C20.4406 50.6258 20.2604 50.6802 20.1066 50.7818C18.2774 51.8746 16.193 52.4672 14.0625 52.5003V52.5003ZM34.6875 48.7503C34.6888 47.692 34.9886 46.6556 35.5524 45.7601C36.1163 44.8646 36.9213 44.1463 37.875 43.6878L36.8391 44.7237L39.375 47.2634V47.8128H37.5V49.6878H39.375V50.6253H37.5V52.5003H39.375V53.4378H41.25V52.5003H43.125V50.6253H41.25V49.6878H43.125V47.8128H41.25V47.2634L43.7878 44.7256L42.75 43.6878C43.6563 44.1235 44.4293 44.7944 44.9883 45.6303C45.5474 46.4663 45.8721 47.4369 45.9286 48.441C45.9851 49.445 45.7715 50.4459 45.3098 51.3394C44.8481 52.2328 44.1554 52.9862 43.3037 53.5209C42.452 54.0557 41.4725 54.3524 40.4672 54.3801C39.4619 54.4077 38.4676 54.1654 37.5878 53.6782C36.708 53.1911 35.9748 52.477 35.4647 51.6103C34.9547 50.7435 34.6863 49.7559 34.6875 48.7503ZM47.8125 48.7503C47.8119 47.6847 47.5836 46.6316 47.1428 45.6615C46.7021 44.6913 46.059 43.8266 45.2569 43.1253H52.6631C52.8036 43.5201 53.03 43.8787 53.3261 44.1753C53.6222 44.4718 53.9804 44.6988 54.375 44.8399V52.6606C53.9799 52.8013 53.6211 53.0282 53.3245 53.3248C53.0279 53.6213 52.8011 53.9802 52.6603 54.3753H45.2541C46.0567 53.6741 46.7003 52.8095 47.1415 51.8394C47.5828 50.8693 47.8115 49.816 47.8125 48.7503V48.7503ZM42.3497 43.5124L40.3125 45.5496L38.2753 43.5124C39.5844 42.9962 41.0406 42.9962 42.3497 43.5124V43.5124ZM32.8125 48.7503C32.8131 49.8158 33.0414 50.8689 33.4822 51.839C33.9229 52.8092 34.566 53.6739 35.3681 54.3753H27.9619C27.8214 53.9804 27.595 53.6218 27.2989 53.3252C27.0028 53.0287 26.6446 52.8017 26.25 52.6606V52.5003H27.6562C28.5265 52.5003 29.3611 52.1545 29.9764 51.5392C30.5918 50.9238 30.9375 50.0892 30.9375 49.219C30.9375 48.3488 30.5918 47.5142 29.9764 46.8988C29.3611 46.2835 28.5265 45.9378 27.6562 45.9378H26.25V44.8399C26.6451 44.6992 27.0039 44.4723 27.3005 44.1757C27.5971 43.8792 27.8239 43.5203 27.9647 43.1253H35.3709C34.5683 43.8264 33.9247 44.691 33.4835 45.6611C33.0422 46.6312 32.8135 47.6845 32.8125 48.7503ZM58.125 58.1253H22.5V52.5003H24.375V53.4378C24.375 53.6864 24.4738 53.9248 24.6496 54.1007C24.8254 54.2765 25.0639 54.3753 25.3125 54.3753C25.5611 54.3753 25.7996 54.474 25.9754 54.6498C26.1512 54.8257 26.25 55.0641 26.25 55.3128C26.25 55.5614 26.3488 55.7998 26.5246 55.9757C26.7004 56.1515 26.9389 56.2503 27.1875 56.2503H53.4375C53.6861 56.2503 53.9246 56.1515 54.1004 55.9757C54.2762 55.7998 54.375 55.5614 54.375 55.3128C54.375 55.0641 54.4738 54.8257 54.6496 54.6498C54.8254 54.474 55.0639 54.3753 55.3125 54.3753C55.5611 54.3753 55.7996 54.2765 55.9754 54.1007C56.1512 53.9248 56.25 53.6864 56.25 53.4378V44.0628C56.25 43.8141 56.1512 43.5757 55.9754 43.3998C55.7996 43.224 55.5611 43.1253 55.3125 43.1253C55.0639 43.1253 54.8254 43.0265 54.6496 42.8507C54.4738 42.6749 54.375 42.4364 54.375 42.1878C54.375 41.9391 54.2762 41.7007 54.1004 41.5248C53.9246 41.349 53.6861 41.2503 53.4375 41.2503H27.1875C26.9389 41.2503 26.7004 41.349 26.5246 41.5248C26.3488 41.7007 26.25 41.9391 26.25 42.1878C26.25 42.4364 26.1512 42.6749 25.9754 42.8507C25.7996 43.0265 25.5611 43.1253 25.3125 43.1253C25.0639 43.1253 24.8254 43.224 24.6496 43.3998C24.4738 43.5757 24.375 43.8141 24.375 44.0628V45.9378H22.5V39.3753H58.125V58.1253Z" fill="black"/>
<path d="M5.90622 33.4688C5.99184 33.557 6.09422 33.6273 6.20735 33.6754C6.32048 33.7235 6.44209 33.7486 6.56504 33.7491C6.68799 33.7497 6.80981 33.7256 6.92334 33.6785C7.03688 33.6313 7.13985 33.5619 7.22622 33.4744L10.9762 29.7244L9.6506 28.3988L7.49997 30.5494V19.6875H5.62497V30.5494L3.47528 28.3997L2.14966 29.7253L5.89966 33.4753L5.90622 33.4688Z" fill="black"/>
<path d="M5.625 15.9375H7.5V17.8125H5.625V15.9375Z" fill="black"/>
</g>
<defs>
<clipPath id="clip0_173_3809">
<rect width="60" height="60" fill="white"/>
</clipPath>
</defs>
</svg>
